<?xml version="1.0" encoding="UTF-8"?>
<svg id="Layer_2" data-name="Layer 2" xmlns="http://www.w3.org/2000/svg" viewBox="0 0 81.87 40">
  <defs>
    <style>
      .cls-1 {
        fill: #346275;
      }
    </style>
  </defs>
  <g id="Layer_1-2" data-name="Layer 1">
    <path class="cls-1" d="M14.96,4.33c-.96,1.14-2.49,2.03-4.03,1.9-.19-1.54,.56-3.17,1.44-4.17,.96-1.17,2.64-2,4-2.06,.16,1.6-.46,3.17-1.41,4.33m1.39,2.21c-2.22-.13-4.13,1.26-5.18,1.26s-2.69-1.2-4.45-1.17c-2.29,.03-4.41,1.33-5.58,3.39-2.4,4.13-.62,10.24,1.7,13.59,1.14,1.66,2.49,3.49,4.29,3.42,1.7-.06,2.37-1.1,4.41-1.1s2.65,1.1,4.45,1.07c1.86-.03,3.02-1.66,4.16-3.33,1.3-1.89,1.82-3.73,1.86-3.82-.03-.03-3.58-1.39-3.61-5.49-.03-3.42,2.8-5.05,2.93-5.15-1.6-2.37-4.09-2.62-4.96-2.69M29.19,1.9V26.84h3.87v-8.52h5.36c4.89,0,8.33-3.36,8.33-8.22S43.38,1.9,38.55,1.9h-9.36Zm3.87,3.26h4.46c3.36,0,5.28,1.79,5.28,4.94s-1.92,4.96-5.29,4.96h-4.45V5.17Zm20.76,21.86c2.43,0,4.69-1.23,5.71-3.18h.08v2.99h3.58V14.43c0-3.6-2.88-5.92-7.31-5.92-4.11,0-7.15,2.35-7.26,5.58h3.49c.29-1.54,1.71-2.54,3.66-2.54,2.37,0,3.69,1.1,3.69,3.13v1.38l-4.83,.29c-4.49,.27-6.92,2.11-6.92,5.31s2.51,5.37,6.11,5.37Zm1.04-2.96c-2.06,0-3.37-.99-3.37-2.51s1.26-2.48,3.68-2.62l4.3-.27v1.41c0,2.33-1.98,4-4.61,4Zm13.11,9.55c3.77,0,5.55-1.44,7.1-5.81l6.8-19.06h-3.93l-4.56,14.73h-.08l-4.56-14.73h-4.05l6.56,18.15-.35,1.1c-.59,1.87-1.55,2.59-3.26,2.59-.3,0-.9-.03-1.14-.06v2.99c.22,.06,1.18,.1,1.47,.1Z"/>
    <g>
      <g>
        <path class="cls-1" d="M40.12,34.2c-.71,.32-1.27,.61-1.27,.63,0,.06,2.07,4.44,2.16,4.57,.13,.19,.34,.38,.58,.5,.18,.08,.24,.1,.54,.1s.37,0,.54-.1,.48-.37,.59-.54c.03-.06,.05-.06,.06,0,.05,.13,.42,.45,.59,.54,.19,.1,.24,.11,.56,.11s.37,0,.54-.1c.27-.14,.5-.37,.64-.63,.06-.13,.56-1.17,1.11-2.36l.98-2.13-.26-.13c-.14-.06-.72-.34-1.3-.59s-1.06-.46-1.06-.45c0,0-.43,.9-.91,1.96s-.9,1.92-.91,1.92-.43-.87-.95-1.96c-.5-1.07-.93-1.96-.95-1.96,0,0-.59,.26-1.3,.58h0l-.02,.03Zm1.83,2.2c.46,.96,.87,1.84,.9,1.91l.06,.14-.1,.21c-.21,.45-.38,.61-.69,.61-.21,0-.35-.1-.48-.27-.05-.06-.29-.59-.56-1.15s-.64-1.38-.85-1.83c-.21-.43-.37-.8-.37-.83,0-.05,1.17-.59,1.22-.58,0,0,.4,.8,.85,1.8h.02Zm4.23-1.49c.37,.19,.59,.29,.59,.32s-.38,.87-.85,1.88c-.98,2.13-1.01,2.16-1.36,2.2-.19,0-.24,0-.35-.1-.1-.08-.19-.19-.27-.38-.08-.16-.14-.29-.14-.34,0-.03,.38-.87,.85-1.88,.46-1.01,.87-1.88,.88-1.89,0-.05,.05-.08,.06-.08s.3,.13,.64,.29h-.03l-.02-.02Z"/>
        <path class="cls-1" d="M53.31,34.42c-.34,.19-.32,.74,.03,.88,.21,.08,.43,.05,.56-.11,.13-.14,.18-.26,.14-.43-.08-.32-.43-.5-.74-.34Z"/>
        <path class="cls-1" d="M72.34,36.76v2.36h.8v-4.71h-.8v2.36h0Z"/>
        <path class="cls-1" d="M74.04,36.76v2.36h.8v-4.71h-.8v2.36h0Z"/>
        <path class="cls-1" d="M79.63,35.48v.48h-.59v.75h.59v.8c.03,.74,.03,.82,.11,1.01,.19,.43,.48,.64,1.01,.67,.18,0,.38,0,.48-.03,.21-.05,.64-.26,.64-.29s-.06-.18-.13-.34c-.1-.21-.14-.27-.19-.27-.03,0-.16,.06-.27,.11-.34,.14-.67,.08-.8-.16-.03-.08-.05-.27-.06-.8v-.71h1.23v-.75h-1.25v-.95h-.79v.48h0l.02-.02Z"/>
        <path class="cls-1" d="M59.18,35.91c-.38,.11-.79,.42-.95,.75-.29,.58-.27,1.35,.08,1.88,.27,.42,.66,.64,1.19,.66,.35,.03,.64-.06,.85-.27,.08-.08,.14-.13,.16-.13s.03,.08,.03,.16v.16h.8v-1.59l-.03-1.57h-.38l-.38-.03v.18s0,.16-.03,.16-.08-.05-.14-.11c-.21-.19-.42-.26-.74-.27-.18,0-.35,.03-.45,.05h0v-.02Zm.8,.77c.21,.08,.43,.29,.5,.5s.08,.53,0,.72c-.18,.48-.71,.71-1.17,.48-.3-.14-.48-.43-.48-.85,0-.21,0-.29,.08-.43,.21-.37,.64-.54,1.06-.4h0l.02-.02Z"/>
        <path class="cls-1" d="M64.95,35.93s-.13,.1-.18,.13c-.05,.05-.42,1.04-.82,2.2,0,.06-.05,.08-.06,.08,0,0-.22-.54-.43-1.19-.24-.64-.42-1.17-.42-1.17,0,0-.19,.05-.38,.13-.24,.08-.37,.16-.35,.19,.05,.21,1.01,2.55,1.09,2.64,.21,.26,.58,.34,.85,.19,.21-.13,.3-.3,.63-1.12,.16-.4,.29-.74,.32-.72,0,0,.16,.35,.3,.77,.29,.79,.43,.98,.64,1.09,.14,.08,.38,.08,.54,.03,.27-.11,.34-.27,.87-1.59,.27-.71,.5-1.28,.5-1.3s-.18-.08-.37-.16c-.27-.1-.38-.13-.38-.08-.21,.56-.79,2.16-.8,2.24-.05,.13-.05,.1-.43-.99-.22-.61-.43-1.17-.46-1.22-.13-.21-.4-.27-.59-.14h-.03l-.02-.02Z"/>
        <path class="cls-1" d="M69.36,35.91c-.27,.08-.46,.21-.69,.43-.22,.24-.34,.48-.42,.85-.16,.75,.22,1.54,.87,1.88,.19,.1,.27,.11,.54,.13,.27,0,.34,0,.53-.06,.11-.05,.27-.13,.34-.21s.14-.13,.14-.13v.29h.38l.38,.03v-1.59l-.03-1.59h-.8v.29s-.08-.05-.14-.11-.21-.14-.27-.19c-.18-.11-.61-.13-.87-.06h0l.03,.05Zm.8,.77c.54,.19,.75,.99,.37,1.47-.13,.19-.4,.29-.66,.29-.24,0-.5-.11-.64-.26-.24-.27-.29-.79-.13-1.12,.21-.38,.64-.54,1.06-.4h0v.02Z"/>
        <path class="cls-1" d="M76.71,35.91c-.59,.14-.99,.58-1.14,1.17-.08,.27-.08,.67,0,.93,.18,.63,.59,1.03,1.22,1.15,.27,.06,.8,.03,1.07-.06,.24-.08,.59-.27,.63-.35,0-.03-.08-.16-.24-.27l-.24-.24-.18,.11c-.22,.13-.35,.19-.64,.19-.32,0-.58-.13-.74-.37-.22-.32-.27-.29,1.01-.29,1.01,0,1.14,0,1.15-.06,.03-.1,.03-.37-.03-.64-.11-.54-.38-.9-.85-1.12-.21-.1-.27-.11-.56-.13-.19,0-.38,0-.48,.03v-.03l.02-.02Zm.79,.75c.16,.08,.29,.29,.34,.48l.03,.1h-1.51l.03-.14c.11-.43,.67-.67,1.11-.43Z"/>
        <path class="cls-1" d="M53.17,37.53v1.59h.8v-1.59l-.03-1.57h-.38l-.38-.03v1.6h0Z"/>
        <path class="cls-1" d="M49.69,36.07c-.18,.06-.32,.13-.35,.13-.05,.03,0,.21,.45,1.31,.27,.71,.54,1.33,.59,1.39,.21,.27,.59,.34,.85,.19,.16-.11,.21-.16,.29-.34,.08-.14,.99-2.44,.99-2.5,0-.03-.72-.29-.75-.27,0,0-.8,2.16-.87,2.37,0,.03-.21-.48-.75-2.04-.08-.21-.14-.35-.16-.35,0,.03-.14,.08-.3,.13h0l.02-.03Z"/>
        <path class="cls-1" d="M54.93,36.11c-.21,.08-.37,.14-.37,.16,0,.03,.9,2.36,.98,2.48s.26,.34,.37,.38c.26,.13,.64,0,.8-.26,.05-.08,.32-.71,.59-1.38l.48-1.27-.1-.03c-.3-.13-.66-.24-.66-.24,0,0-.19,.48-.38,1.09-.5,1.41-.46,1.31-.5,1.25,0-.03-.21-.56-.43-1.17-.22-.61-.4-1.12-.42-1.14,0-.03-.18,.03-.37,.1v.02Z"/>
      </g>
      <g>
        <path class="cls-1" d="M31.87,36.27c.14,.11,.24,.24,.32,.38,.08,.16,.13,.32,.13,.5,0,.24-.06,.43-.18,.61-.11,.19-.27,.32-.5,.43s-.48,.16-.79,.16h-1.67v-4.46h1.6c.29,0,.56,.05,.79,.16s.37,.24,.48,.4c.11,.18,.16,.35,.16,.58,0,.27-.08,.48-.22,.66s-.32,.29-.56,.37c.16,.03,.3,.1,.43,.21h0Zm-2.08-.43h.98c.27,0,.48-.06,.64-.19,.16-.13,.22-.3,.22-.53s-.08-.4-.22-.53c-.16-.13-.35-.19-.64-.19h-.96v1.44h-.02Zm1.71,1.84c.16-.14,.26-.32,.26-.58s-.08-.43-.26-.59c-.18-.14-.4-.22-.69-.22h-1.01v1.57h1.03c.29,0,.51-.06,.69-.21h0l-.02,.03Z"/>
        <path class="cls-1" d="M36.13,34.86l-2.1,5.14h-.61l.69-1.68-1.41-3.46h.64l1.11,2.84,1.09-2.84h.59Z"/>
        <path class="cls-1" d="M36.61,35.54s-.11-.18-.11-.27,.05-.21,.11-.27,.18-.11,.27-.11,.21,.03,.27,.11c.08,.08,.11,.18,.11,.27s-.03,.21-.11,.27-.18,.11-.27,.11-.21-.03-.27-.11Zm0,2.74s-.11-.18-.11-.27,.05-.21,.11-.27c.08-.08,.18-.11,.27-.11s.21,.03,.27,.11c.08,.08,.11,.18,.11,.27s-.03,.21-.11,.27-.18,.11-.27,.11-.21-.05-.27-.11Z"/>
      </g>
    </g>
  </g>
</svg>