<svg width="159" height="40" viewBox="0 0 159 40" xmlns="http://www.w3.org/2000/svg"><title>diners</title><path d="M110.464 33.914c-.15-.352-.294-.79-.44-1.212l-2.192-6.219c-.04-.101-.07-.207-.106-.303a.158.158 0 0 0-.131-.068c-.05 0-.08.018-.116.03-.232.146-.71.386-1.078.51-.101.475-.318 1.065-.473 1.509l-1.906 5.457c-.174.487-.54.733-.982.733H102.92V34.81h.056c.426-.024.851-.05 1.281-.05.475 0 .962.026 1.434.05h.052V34.35h-.181c-.395 0-.837-.07-.842-.362 0-.192.144-.507.264-.914l.366-1.203h2.62l.454 1.344c.134.376.245.703.235.835 0 .23-.404.293-.684.293h-.183V34.807l.052-.004c.61-.022 1.198-.05 1.781-.05.564 0 1.107.028 1.634.05l.051.004V34.342h-.12c-.371.012-.59-.12-.726-.428zm.802.851c-.536-.024-1.065-.05-1.634-.05-.583 0-1.18.026-1.786.05v-.353h.134c.275 0 .733-.049.733-.345 0-.153-.105-.47-.237-.853l-.465-1.38h-2.696l-.378 1.239c-.12.4-.264.714-.264.926 0 .36.5.416.891.416h.134v.357c-.48-.023-.964-.047-1.443-.047-.428 0-.853.021-1.28.047v-.357h.07c.463 0 .86-.275 1.031-.776l1.904-5.45c.155-.442.371-1.03.442-1.478a5.786 5.786 0 0 0 1.076-.512c.038-.01.054-.024.097-.024.037 0 .058 0 .084.038.035.096.07.204.108.293l2.19 6.219c.144.418.28.853.443 1.217.143.336.39.473.784.473h.064v.35h-.002zm7.83-8.25c.456.006 1.135.05 1.704.05.578 0 1.267-.047 1.812-.05v.252h-.11c-.435 0-.93.073-.93.734v6.223c0 .656.5.733.93.733h.11v.247c-.56 0-1.248-.047-1.821-.047-.569 0-1.239.042-1.695.047v-.247h.11c.429 0 .931-.075.931-.733V27.5c0-.658-.505-.734-.93-.734h-.11v-.251zm-12.45 1.282v.007l-1.103 3.363h2.22l-1.092-3.37h-.026zm-1.035 3.309l1.046-3.182 1.032 3.182h-2.078zm12.75-4.95l.183.03c-.05.309-.092.612-.127.92-.023.31-.023.623-.023.93l-.261.097c-.019-.442-.125-1.124-.924-1.126h-2.002v6.378c0 .931.463 1.074 1.032 1.077h.171v.249c-.465-.005-1.26-.05-1.882-.05-.689 0-1.49.045-1.96.05v-.247h.171c.656-.002 1.037-.096 1.037-1.048v-6.407h-1.996c-.886-.014-.992.257-1.147 1.084h-.251c.045-.31.106-.63.136-.952.05-.315.066-.637.07-.961h.193c.11.331.416.345.694.343H117.665c.306 0 .644-.021.696-.367zm6.467-4.124c-5.109 0-8.345-3.3-8.345-8.219 0-4.477 3.995-7.69 8.277-7.69 1.768 0 3.476.574 5.159 1.161l.216 3.126h-.54c-.419-2.562-2.226-3.584-4.673-3.584-2.514 0-6.16 1.683-6.16 6.926 0 4.416 3.15 7.584 6.513 7.584 2.157 0 3.95-1.488 4.388-3.777l.5.13-.5 3.186c-.92.567-3.387 1.157-4.835 1.157zm-21.755 4.841v-.456h-.052c-.489 0-.975.05-1.462.05-.554 0-1.102-.05-1.664-.05h-.051V26.875h.312c.346.005.98.127.983 1.07v4.371l-5.227-5.885c-.395-.016-.743.03-1.09.03-.45 0-.912-.046-1.366-.046h-.054V26.874h.204c.513 0 1.03.385 1.03 1.017v5.006c-.007.95-.233 1.457-1.016 1.46h-.218V34.814h.054c.533 0 1.083-.05 1.615-.05.51 0 1.017.05 1.532.05h.052V34.355h-.25c-.897-.014-1.057-.303-1.069-1.337v-4.762l6.033 6.724.489.019h.059l-.007-.054c-.064-.367-.073-.78-.073-1.199V28.34c.011-1.406.517-1.446 1.008-1.46H103.073v-.007zm-1.286 1.46v5.412c0 .416.01.83.068 1.199h-.453l-6.12-6.828v4.9c0 1.037.202 1.396 1.121 1.396h.197v.353c-.507 0-1.02-.05-1.53-.05-.538 0-1.083.05-1.616.05v-.353h.164c.823 0 1.07-.559 1.07-1.51V27.89c0-.665-.546-1.07-1.082-1.07h-.15v-.354c.446 0 .917.047 1.365.047.353 0 .703-.047 1.058-.047l5.29 5.955h.003l.009-.017.007-.007v-4.456c0-.977-.674-1.12-1.032-1.12h-.258v-.353c.56 0 1.104.047 1.664.047.489 0 .973-.047 1.464-.047v.352h-.179c-.5.003-1.06.097-1.06 1.512zm16.482-2.297l-.005.052c-.018.313-.253.317-.587.324H111.489c-.308-.007-.524-.011-.607-.31l-.014-.037h-.374v.049c0 .343-.027.674-.07 1.004-.04.343-.096.676-.146 1.012l-.004.06H110.732l.01-.043c.197-.881.173-1.03 1.055-1.041h1.899l.004 6.298c-.02.924-.28.93-.935.945h-.28V34.808h.054c.463 0 1.3-.05 2.007-.05.637 0 1.47.05 1.937.05h.045V34.35h-.28c-.564-.014-.926-.073-.93-.97v-6.273h1.9c.748 0 .8.646.83 1.093l.005.068.418-.153.035-.014v-.035c0-.317 0-.64.024-.954.038-.322.082-.637.13-.96l.013-.048-.34-.05-.064-.019zm.202 1.072c-.023.324-.023.642-.023.959l-.355.136c-.026-.44-.082-1.14-.877-1.14h-1.955v6.322c0 .922.418 1.027.987 1.027h.22v.355c-.453 0-1.29-.049-1.931-.049-.712 0-1.546.05-2.007.05v-.356h.226c.655 0 .989-.056.989-.998v-6.35h-1.95c-.891 0-.931.216-1.11 1.083h-.355c.05-.339.11-.665.146-1.018.05-.333.07-.662.07-1.01h.29c.091.355.39.343.71.343h6.133c.325 0 .618-.012.64-.367l.284.05c-.05.324-.09.636-.132.963zm-8.103 6.846c-.155-.362-.299-.806-.442-1.224l-2.188-6.219c-.04-.091-.07-.204-.106-.287-.005-.014-.005-.014-.019-.014h-.016c-.026 0-.045.012-.066.02-.23.145-.71.382-1.06.476-.075.45-.289 1.041-.444 1.483l-1.901 5.457c-.181.517-.597.813-1.081.813h-.02v.247c.407-.026.819-.05 1.235-.05.46 0 .928.027 1.382.05v-.247h-.078c-.385-.007-.928-.049-.942-.47.002-.237.148-.542.265-.942l.39-1.276h2.766l.482 1.42c.134.382.245.697.245.871-.014.362-.52.393-.79.402h-.078v.245c.588-.024 1.166-.05 1.73-.05.55 0 1.07.026 1.589.05v-.245h-.019c-.409 0-.688-.16-.834-.51zm-4.9-2.74l1.137-3.469h.099l1.133 3.469h-2.37zm-17.234-4.322c-.355 0-.51.04-.677.05v3.543h.583c1.189 0 1.828-.449 1.828-1.854-.002-1.065-.677-1.74-1.734-1.74zm-.094 3.54h-.531v-3.448c.152-.015.303-.047.625-.047 1.034.009 1.68.65 1.687 1.69-.01 1.381-.606 1.79-1.781 1.804zm-.926-8.736c-.769 0-1.53-.043-2.317-.043-.788 0-1.577.024-2.358.043v-.56h.393c.61 0 1.046 0 1.046-.73V14.75c0-1.246-.762-1.864-2.01-1.864-.695 0-1.81.574-2.536 1.05v6.468c0 .729.487.729 1.098.729h.392v.562c-.763 0-1.53-.045-2.317-.045-.785 0-1.572.021-2.357.045v-.562h.392c.611 0 1.046 0 1.046-.729v-5.788h.003c0-.81-.245-1.03-1.27-1.44v-.414c.94-.308 1.834-.593 2.887-1.05.06 0 .126.044.126.22v1.42c1.248-.896 2.32-1.639 3.784-1.639 1.857 0 2.513 1.354 2.513 3.058v5.636c0 .728.477.728 1.09.728h.395v.56zm4.688 12.03l-2.07-3.097.059-.024c.928-.362 1.619-1.001 1.619-2.047 0-1.647-1.283-2.033-2.778-2.04-.627 0-1.199.05-1.913.05-.698 0-1.405-.045-1.793-.05v.254h.162c.371 0 .895.059.895.952v6.04c0 .477-.444.698-.895.698h-.162v.244c.57 0 1.114-.05 1.67-.05.668 0 1.338.05 1.994.05v-.244h-.16c-.54 0-1.03-.066-1.03-1.013v-2.595h.868l.012.028c.777 1.368 1.558 2.654 2.434 3.829.362 0 .74-.05 1.112-.05.38 0 .745.04 1.116.05v-.256c-.554-.073-.815-.238-1.14-.729zm-3.762-3.191h-.637v-3.643l.05-.005c.16-.014.321-.047.68-.047 1.084 0 1.79.708 1.79 1.786-.005 1.427-.687 1.909-1.883 1.909zm3.847 3.13l-1.998-2.987c.917-.376 1.627-1.046 1.627-2.12-.003-1.725-1.382-2.136-2.884-2.14-.634 0-1.203.049-1.913.049-.724 0-1.46-.05-1.843-.05h-.051V26.877h.263c.371.01.783.005.792.847v6.04c-.002.402-.36.587-.792.587h-.263V34.81h.051c.595 0 1.152-.05 1.72-.05.675 0 1.369.05 2.045.05h.055V34.35h-.266c-.55-.016-.91-.004-.924-.902v-2.494h.703c.769 1.359 1.549 2.635 2.46 3.833.414.02.795-.03 1.157-.03.39 0 .77.05 1.168.05h.05V34.35l-.043-.007c-.576-.063-.783-.183-1.114-.679zm1.11 1.1c-.39 0-.774-.05-1.164-.05-.369 0-.752.05-1.121.05-.914-1.206-1.702-2.489-2.472-3.861h-.783v2.547c0 .922.425.954.975.954h.214v.355c-.681 0-1.368-.05-2.044-.05-.572 0-1.13.05-1.723.05v-.355h.211c.445 0 .846-.202.846-.639v-6.04c0-.86-.477-.902-.846-.902h-.211v-.353c.38 0 1.116.047 1.842.047.712 0 1.284-.047 1.913-.047 1.497 0 2.832.404 2.832 2.094 0 1.065-.712 1.72-1.654 2.092l2.03 3.041c.334.505.572.646 1.154.717v.35zm-9.035-2.03l-.011.046c-.358 1.335-.933 1.406-2.362 1.415-.776-.004-1.401 0-1.401-.724V30.75h1.375c.79.009.794.406.876 1.128l.005.056.411-.08.045-.014-.002-.042a29.106 29.106 0 0 1-.038-1.356c0-.463.016-.931.038-1.39l.002-.049H82.544l-.005.047c-.08.637-.202.994-.888 1.002h-1.363V27.04h1.6c1.227.014 1.328.569 1.399 1.342l.004.056.419-.105.037-.015v-.047a17.015 17.015 0 0 1-.025-1.816l.002-.05h-.054c-.809 0-2.04.045-3.041.045-.994 0-2.233-.045-2.957-.045h-.052V26.862h.219c.432.009.823.049.825.634v6.223c-.002.583-.393.623-.825.63h-.219V34.803h.052c.677 0 2.092-.047 3.159-.047 1.07 0 2.437.047 3.198.047h.043l.01-.043c.107-.63.248-1.257.401-1.887l.012-.05-.381-.096h-.052v.007zm-.033 2.03c-.763 0-2.129-.05-3.196-.05-1.074 0-2.486.05-3.163.05v-.353h.167c.43 0 .879-.056.879-.679v-6.228c0-.625-.45-.679-.88-.679h-.166v-.357c.724 0 1.962.05 2.961.05.999 0 2.23-.05 3.039-.05-.019.515-.01 1.3.03 1.819l-.362.094c-.058-.771-.2-1.391-1.45-1.391h-1.65v3.116h1.418c.707 0 .865-.404.933-1.05h.357a27.742 27.742 0 0 0 0 2.751l-.357.071c-.07-.714-.104-1.175-.926-1.175h-1.424v2.764c0 .775.686.775 1.45.775 1.426 0 2.054-.096 2.41-1.447l.335.08c-.156.63-.299 1.254-.405 1.889zm17.53-8.2c.473 0 .94-.047 1.41-.05v.248h-.124c-.512.004-1.11.143-1.11 1.565v5.412c0 .395.008.785.062 1.147h-.393l-6.174-6.905v5.03c.005 1.034.235 1.443 1.175 1.447h.146v.247c-.491 0-.982-.05-1.483-.05-.524 0-1.053.05-1.567.05v-.247l.117.003c.85-.005 1.121-.618 1.121-1.568v-5.006c0-.698-.571-1.123-1.133-1.125h-.103v-.247c.435.005.879.05 1.318.05.36 0 .703-.05 1.058-.05l5.29 5.981.038-.042.021-.024.016-4.493c0-1.01-.719-1.17-1.088-1.175h-.209v-.247c.54.005 1.067.05 1.612.05zm-.42 5.833l-.01-.014.01.014zm19.661-5.94c-.578 0-1.295-.048-1.758-.048h-.05V26.87h.222c.43.004.825.049.83.632v6.225c-.005.583-.4.623-.83.628H118.992V34.81h.05c.463 0 1.17-.05 1.754-.05.592 0 1.3.05 1.873.05h.049V34.35h-.216c-.435-.004-.825-.042-.832-.625v-6.228c.004-.58.395-.625.832-.63H122.714V26.408h-.05c-.555.007-1.272.05-1.864.05zm1.866.366h-.162c-.43 0-.881.054-.881.679v6.223c0 .625.451.68.881.68h.162v.357c-.568 0-1.28-.047-1.873-.047-.583 0-1.288.047-1.753.047v-.358h.167c.43 0 .876-.051.876-.679v-6.223c0-.625-.446-.68-.876-.68h-.165v-.352c.463 0 1.175.047 1.758.047.602 0 1.319-.047 1.869-.047l-.003.353zm33.869 6.81c.188-.26.293-.582.366-.838h.245c-.125.641-.285 1.273-.423 1.917-1.03 0-2.057-.05-3.093-.05-1.032 0-2.057.05-3.088.05v-.251h.117c.428 0 .943-.08.943-.844v-6.117c0-.654-.524-.734-.943-.734h-.117v-.249c.613.005 1.22.05 1.83.05.588 0 1.166-.047 1.754-.05v.25h-.247c-.442 0-.86.04-.86.697v6.132c0 .51.376.674.759.717.218.014.44.03.67.03.289 0 .597-.016.916-.05.508-.067.95-.361 1.17-.66zm-7.363.32c-.15-.362-.299-.806-.44-1.224l-2.19-6.219c-.04-.091-.068-.204-.101-.282-.012-.019-.007-.019-.021-.019h-.02c-.027 0-.042.012-.067.02-.23.145-.708.385-1.058.476-.073.45-.29 1.041-.442 1.483l-1.908 5.457c-.179.517-.592.813-1.079.813h-.021v.247c.411-.026.82-.05 1.234-.05.458 0 .93.027 1.386.05v-.247h-.082c-.385-.007-.928-.049-.938-.472 0-.235.148-.538.259-.94l.39-1.276h2.776l.481 1.42c.13.382.242.697.242.871-.02.362-.521.393-.79.402h-.08v.245h.006c.587-.024 1.165-.05 1.727-.05.55 0 1.07.026 1.591.05v-.245h-.021c-.404 0-.689-.16-.834-.51zm-4.898-2.74l1.137-3.469H145.52l1.126 3.469h-2.371zm1.18-3.417l-.005.004-1.102 3.366h2.223l-1.098-3.37h-.018zm-1.04 3.309l1.047-3.182 1.029 3.182h-2.075zm12.41 1.586l-.014.045c-.064.254-.17.587-.353.836-.207.285-.625.562-1.112.619-.303.037-.606.049-.9.049a9.66 9.66 0 0 1-.655-.024c-.372-.054-.66-.169-.665-.618V27.47c.009-.602.298-.578.756-.592h.349V26.42h-.05c-.611 0-1.208.047-1.81.047-.632 0-1.252-.047-1.885-.047h-.049v.456h.216c.437.004.84.049.844.627v6.117c-.005.703-.416.734-.844.738H150.438V34.817h.05c1.045 0 2.098-.05 3.14-.05 1.045 0 2.094.05 3.135.05h.042l.01-.043c.145-.676.31-1.335.444-2.018l.009-.06h-.409l-.035-.004zm-.061 2.073c-1.04 0-2.09-.05-3.13-.05-1.049 0-2.095.05-3.14.05v-.353h.16c.432 0 .9-.056.9-.801v-6.11c0-.628-.468-.68-.9-.68h-.16v-.354c.632 0 1.247.047 1.88.047.606 0 1.198-.047 1.81-.047v.354h-.304c-.444 0-.804.012-.804.64v6.131c0 .477.332.62.712.668a8.627 8.627 0 0 0 1.57-.026c.5-.059.929-.343 1.138-.64.188-.258.293-.596.364-.855h.343c-.124.684-.291 1.347-.44 2.026zm.305-8.635c-.719 0-1.252.546-1.252 1.253 0 .703.538 1.243 1.252 1.243a1.22 1.22 0 0 0 1.246-1.243c0-.703-.54-1.253-1.246-1.253zm0 2.268c-.564 0-.999-.48-.999-1.02 0-.538.435-1.02 1-1.02.56 0 .986.48.986 1.02s-.432 1.02-.987 1.02zm.146-.977a.39.39 0 0 0 .294-.379c0-.228-.198-.331-.423-.331h-.637v.061c.16-.01.178.04.178.165v.928c0 .096-.033.092-.183.117v.057h.606v-.057c-.155-.025-.188-.02-.188-.098v-.423h.144c.232.336.338.578.449.578h.244v-.04a1.23 1.23 0 0 1-.27-.296l-.214-.282zm-.202-.038h-.15v-.592h.143c.136 0 .246.073.246.275-.002.202-.077.317-.24.317zm-7.744 6.531c-.15-.352-.294-.79-.442-1.212l-2.186-6.219c-.042-.101-.072-.207-.11-.303a.149.149 0 0 0-.13-.068.239.239 0 0 0-.11.03 6.841 6.841 0 0 1-1.086.515c-.105.47-.322 1.06-.465 1.504l-1.908 5.457c-.174.48-.543.733-.987.733H141.726V34.81h.05c.434-.024.857-.05 1.283-.05.47 0 .961.026 1.433.05h.05V34.35h-.179c-.395 0-.832-.07-.832-.364-.005-.19.136-.503.254-.912l.367-1.203h2.625l.449 1.344c.134.379.244.703.24.835 0 .23-.414.293-.69.293h-.173V34.807l.054-.002c.602-.021 1.198-.05 1.781-.05.57 0 1.103.029 1.634.05l.054.005V34.346h-.122c-.377.008-.6-.124-.736-.432zm.813.851c-.538-.024-1.074-.05-1.643-.05-.583 0-1.175.026-1.781.05v-.353h.13c.27 0 .737-.049.737-.345 0-.153-.11-.47-.244-.853l-.463-1.38h-2.694l-.385 1.239c-.115.4-.256.714-.256.926 0 .36.5.416.89.416h.137v.357a29.49 29.49 0 0 0-1.438-.047c-.43 0-.854.021-1.284.047v-.357h.068c.466 0 .856-.275 1.035-.776l1.903-5.45c.153-.442.37-1.03.44-1.478.38-.132.855-.364 1.083-.512.042-.01.057-.024.096-.024.038 0 .057 0 .083.038.037.096.075.204.11.293l2.186 6.219c.143.418.284.853.444 1.217.143.336.388.473.778.473h.073l-.005.35zm-22.67-8.529c-2.496.003-4.437 1.94-4.442 4.444.005 2.586 1.956 4.31 4.499 4.32 2.552-.01 4.547-1.845 4.547-4.609-.004-2.566-2.054-4.152-4.604-4.155zm.057 8.71c-2.522 0-4.447-1.713-4.447-4.266 0-2.477 1.908-4.387 4.383-4.387 2.534 0 4.555 1.57 4.555 4.098.005 2.738-1.955 4.555-4.491 4.555zm-.057-8.609c-2.446 0-4.34 1.897-4.34 4.343.004 2.524 1.908 4.214 4.401 4.214 2.503 0 4.438-1.8 4.447-4.503-.005-2.5-2-4.049-4.508-4.054zm.177 8.134c-1.975-.002-2.948-2.073-2.952-4.214.004-1.602.632-3.492 2.745-3.492 2.023 0 2.963 2.141 2.968 3.887 0 1.732-.409 3.82-2.761 3.82zm-.207-7.661c-2.08 0-2.694 1.859-2.694 3.447 0 2.127.973 4.163 2.898 4.163 2.308 0 2.708-2.036 2.708-3.77.004-1.735-.931-3.84-2.912-3.84zm.207 7.558c-1.883-.003-2.847-1.995-2.851-4.113.01-1.584.608-3.389 2.644-3.394 1.936.005 2.867 2.066 2.867 3.786-.005 1.737-.395 3.72-2.66 3.72zm12.775-7.803c.472 0 .945-.047 1.415-.05v.248h-.13c-.51.004-1.106.136-1.106 1.565v5.412c0 .395.01.785.056 1.147h-.39l-6.172-6.905v5.034c0 1.035.238 1.443 1.17 1.448h.149v.245c-.491 0-.982-.047-1.478-.047-.53 0-1.056.047-1.57.047v-.247l.12.002c.853-.005 1.123-.618 1.123-1.563v-5.01c0-.698-.578-1.124-1.13-1.126h-.106v-.247c.437.005.881.05 1.318.05.357 0 .708-.05 1.06-.05l5.288 5.981.042-.042.029-.023.009-4.494c0-1.008-.722-1.17-1.084-1.175h-.211v-.247c.529.003 1.055.047 1.598.047zm1.518.308v-.454h-.049c-.496 0-.982.048-1.469.048-.55 0-1.097-.047-1.661-.047h-.055v.456h.318c.348.009.982.126.987 1.069v4.371l-5.23-5.88c-.404-.019-.742.026-1.102.026-.444 0-.91-.045-1.363-.045h-.054V26.874h.207c.51 0 1.03.385 1.03 1.017v5.01c-.01.945-.238 1.45-1.023 1.455h-.214V34.815h.052c.538 0 1.083-.05 1.617-.05.505 0 1.018.05 1.528.05h.049V34.355h-.252c-.895-.014-1.05-.303-1.064-1.337v-4.762l6.026 6.724.49.014h.06l-.012-.051a8.091 8.091 0 0 1-.066-1.197v-5.412c.01-1.4.52-1.445 1.006-1.46h.244v-.002zm-1.29 1.46v5.412c0 .416.01.83.073 1.199h-.454l-6.12-6.825v4.9c0 1.036.203 1.393 1.122 1.393h.202v.355c-.51 0-1.025-.049-1.528-.049-.538 0-1.083.05-1.617.05v-.356h.162c.825 0 1.07-.557 1.07-1.508v-5.01c0-.666-.539-1.07-1.08-1.07h-.152v-.357c.447 0 .917.049 1.363.049.36 0 .703-.05 1.058-.05l5.292 5.958.017-.016.01-.007v-4.456c0-.978-.675-1.119-1.035-1.119h-.251v-.355c.554 0 1.102.05 1.661.05.487 0 .973-.05 1.462-.05v.355h-.18c-.513-.002-1.075.092-1.075 1.507zm-.644 4.065l-.01-.014.01.014zm-62.99-6.362l-.006.052c-.02.313-.261.317-.593.324H70.17c-.303-.007-.524-.011-.606-.31l-.005-.037h-.378v.049c0 .343-.021.674-.073 1.004-.035.343-.094.679-.146 1.008l-.002.066H69.416l.007-.043c.195-.881.179-1.03 1.055-1.04h1.9v6.298c-.015.923-.28.93-.931.944h-.278V34.81h.05c.465 0 1.3-.05 2.009-.05.637 0 1.469.05 1.939.05h.05V34.35h-.28c-.567-.014-.924-.073-.933-.97v-6.273H75.9c.752 0 .8.646.832 1.093l.002.068.421-.153.033-.014v-.035c0-.322 0-.64.021-.954.035-.322.082-.637.132-.96l.007-.048-.336-.05-.054-.019zm.2 1.072c-.02.324-.02.642-.02.959l-.36.136c-.026-.44-.083-1.14-.88-1.14H73.95v6.322c0 .922.416 1.027.983 1.027h.23v.355c-.463 0-1.297-.049-1.936-.049-.715 0-1.547.05-2.01.05v-.356h.223c.656 0 .988-.056.988-.998v-6.35h-1.951c-.89 0-.926.216-1.105 1.083h-.357c.05-.339.108-.665.143-1.018.047-.333.071-.662.071-1.01h.289c.096.355.393.343.712.343h6.134c.322 0 .618-.012.644-.367l.282.05c-.05.324-.094.636-.132.963zm-10.343 5.29l-.01-.014.01.01v.004zm32.306-17.12v5.134c0 .729.437.729 1.048.729h1.222v.562c-1.2-.02-2.115-.045-3.055-.045-.898 0-1.812.026-2.6.045v-.564h.59c.61 0 1.046 0 1.046-.731v-6.132c0-.677-.806-.813-1.135-.985v-.329c1.596-.679 2.47-1.243 2.668-1.243.129 0 .195.064.195.28v1.97h.047c.545-.85 1.464-2.25 2.794-2.25.545 0 1.248.367 1.248 1.156 0 .588-.416 1.12-1.027 1.12-.68 0-.68-.527-1.443-.527-.376-.007-1.598.493-1.598 1.81zm9.544 4.5c0-2.585-4.757-1.749-4.757-5.262 0-1.225.985-2.797 3.384-2.797.698 0 1.638.198 2.494.637l.15 2.226h-.505c-.22-1.375-.982-2.162-2.388-2.162-.872 0-1.701.505-1.701 1.438 0 2.562 5.07 1.772 5.07 5.2 0 1.446-1.162 2.978-3.761 2.978-.877 0-1.901-.307-2.665-.74l-.242-2.512.392-.113c.287 1.44 1.156 2.67 2.755 2.67 1.29-.01 1.774-.797 1.774-1.563zm-51.852 6.68c-.58 0-1.293-.048-1.763-.048H55V26.87h.216c.43.004.825.049.827.632v6.225c-.002.583-.397.62-.827.628H55V34.81h.05c.47 0 1.17-.05 1.748-.05.594 0 1.304.05 1.878.05h.054V34.35h-.219c-.432-.007-.83-.042-.83-.625v-6.228c0-.583.398-.625.83-.63h.219v-.458h-.054c-.562.002-1.274.047-1.864.047zm1.861.366h-.164c-.428 0-.882.054-.882.679v6.223c0 .625.454.68.882.68h.164v.357c-.57 0-1.283-.047-1.877-.047-.583 0-1.284.047-1.749.047v-.358h.167c.428 0 .879-.051.879-.679v-6.223c0-.625-.451-.68-.88-.68h-.166v-.352c.465 0 1.177.047 1.763.047.592 0 1.304-.047 1.863-.047v.353zm8.56-.259c.472 0 .942-.047 1.41-.05v.252h-.122c-.515 0-1.112.139-1.112 1.56v5.413c0 .395.01.785.061 1.147h-.392l-6.172-6.905v5.034c0 1.035.233 1.441 1.17 1.448h.148v.25c-.49-.005-.984-.05-1.48-.05-.522 0-1.053.05-1.565.05v-.255l.112.005c.856-.005 1.12-.618 1.12-1.563v-5.01c0-.698-.572-1.124-1.131-1.124h-.104l.003-.251c.432.005.879.05 1.311.05.362 0 .707-.05 1.06-.05l5.288 5.979.04-.04.023-.024.02-4.493c0-1.01-.725-1.175-1.087-1.175h-.211v-.25c.536.008 1.064.052 1.61.052zm-10.421 0c.576 0 1.264-.05 1.812-.05v.252h-.115c-.426 0-.933.073-.933.734v6.223c0 .66.507.733.933.733h.115v.252c-.562-.005-1.248-.05-1.828-.05-.562 0-1.234.05-1.695.05v-.252h.115c.423 0 .93-.07.93-.733V27.5c0-.658-.507-.734-.93-.734h-.115v-.251c.46.005 1.145.05 1.711.05zm38.197-10.893l.198-.136c.019-.13.019-.259.019-.395-.02-2.313-1.923-3.429-3.693-3.429-1.527 0-4.413 1.267-4.413 5.549 0 1.396.7 4.764 4.174 4.764 1.793 0 3.034-1.138 4.04-2.47l-.306-.304c-.804.804-1.746 1.46-2.95 1.46-1.743 0-3.08-1.702-3.207-3.777-.05-.738-.05-1.07 0-1.267l6.138.005zm-3.562-3.255c1.224 0 1.903.896 1.903 2.007 0 .259-.063.545-.61.545h-3.803c.263-1.572 1.18-2.552 2.51-2.552zm-30.278 9.279c7.735 0 8.999-5.434 8.999-7.598 0-3.869-3.079-7.648-8.738-7.648-1.617 0-2.862.05-3.781.05-.853 0-1.723 0-2.576-.05v.566c.982.024 2.01-.11 2.01 1.855h-.003v10.604c-.061 1.485-.698 1.523-2.007 1.661v.56c.982-.02 1.946-.043 2.928-.043 1.025.007 2.054.043 3.168.043zM59.221 7.237c.395-.028.808-.087 1.706-.087 4.216 0 6.84 2.95 6.84 7.034 0 3.258-1.552 6.814-6.271 6.814-1.07 0-2.273-.198-2.273-1.878l-.002-11.883zm12.982.024c0-.545.522-1.05 1.067-1.05.569 0 1.074.458 1.074 1.05 0 .587-.481 1.097-1.074 1.097-.566-.002-1.067-.528-1.067-1.097zm60.193 13.15V8.24c0-1.422-.329-1.464-1.161-1.706v-.348c.877-.277 1.79-.672 2.25-.938.239-.13.413-.244.48-.244.14 0 .177.134.177.312V20.41c0 .729.482.729 1.095.729h.365v.561c-.736 0-1.504-.044-2.294-.044-.785 0-1.57.026-2.383.044v-.564h.418c.616 0 1.053 0 1.053-.726zm-59.081 1.25c-.785 0-1.572.02-2.38.044v-.564h.415c.609 0 1.05 0 1.05-.726v-5.923c0-.96-.33-1.095-1.137-1.525v-.348c1.027-.312 2.25-.721 2.334-.787a.785.785 0 0 1 .397-.108c.108 0 .153.134.153.308v8.385c0 .726.482.726 1.093.726h.371v.564c-.745-.011-1.509-.047-2.296-.047zm74.24-13.42v9.396c0 1.332-.11 2.597-.308 3.892l.456.24.655-.506c.564.245 1.42.769 3.034.769 3.13 0 5.225-2.865 5.225-5.728 0-2.383-1.525-4.59-4.064-4.59-1.198 0-2.378.832-3.25 1.573V5.31c0-.178-.05-.31-.178-.31-.066 0-.243.108-.48.242-.458.266-1.375.66-2.254.94v.35c.835.25 1.164.287 1.164 1.709zm1.748 5.685c.588-.508 1.267-1.03 2.075-1.03 1.707 0 3.493 1.97 3.493 4.327 0 1.944-.978 4.242-3.319 4.242-1.464 0-2.249-1.4-2.249-2.228v-5.311zM84.135 32.85l.235.056a26.824 26.824 0 0 0-.383 1.803c-.766 0-2.108-.047-3.159-.047-1.043 0-2.416.047-3.109.047v-.245h.115c.423-.005.931-.077.931-.733v-6.228c0-.658-.508-.733-.93-.733h-.116v-.25c.731.005 1.93.05 2.91.05.975 0 2.18-.047 2.987-.05a17.87 17.87 0 0 0 .024 1.727l-.257.064c-.052-.747-.26-1.382-1.497-1.374h-1.702v3.22h1.465c.726.006.919-.433.984-1.047h.257a25.618 25.618 0 0 0 0 2.654l-.257.056c-.058-.679-.145-1.18-.973-1.17h-1.476v2.82c0 .827.75.827 1.5.827 1.405.007 2.096-.113 2.451-1.447zm54.531-14.536c0 .653 0 2.536 1.902 2.536.738 0 1.725-.57 2.644-1.324v-5.88c0-.442-1.051-.679-1.836-.9v-.395c1.965-.131 3.19-.303 3.405-.303.174 0 .174.146.174.393v8.068c0 .395.245.413.611.413.266 0 .593-.018.882-.018v.453c-.945.087-2.736.548-3.154.68l-.11-.064v-1.772c-1.312 1.062-2.313 1.83-3.87 1.83-1.179 0-2.401-.768-2.401-2.596v-5.591c0-.574-.087-1.121-1.311-1.225v-.418c.785-.019 2.533-.148 2.818-.148.244 0 .244.148.244.632v5.629h.002zm-61.621 7.842l.185.03c-.044.309-.089.612-.124.92-.021.312-.024.625-.024.93l-.254.097c-.028-.442-.129-1.124-.93-1.126h-2.003v6.378c0 .931.468 1.077 1.042 1.08h.173v.244c-.472 0-1.264-.045-1.884-.045-.687 0-1.49.045-1.96.045v-.245h.178c.651-.002 1.037-.099 1.037-1.055v-6.404h-2.003c-.883-.014-.99.256-1.144 1.083h-.256c.047-.317.1-.63.134-.952a7.23 7.23 0 0 0 .072-.96h.195c.106.33.414.34.694.34h6.188c.298.005.632-.014.684-.36zm-9.812.301c-.555 0-1.105-.047-1.664-.047h-.052V26.87h.315c.343.009.978.124.982 1.069v4.371l-5.224-5.878c-.402-.019-.745.024-1.1.024-.444 0-.91-.045-1.365-.045h-.052V26.866h.207c.51.005 1.029.385 1.029 1.022v5.009c-.007.942-.233 1.45-1.018 1.454h-.218V34.81h.052c.538 0 1.085-.047 1.616-.047.508 0 1.02.047 1.533.047h.054v-.454h-.256c-.896-.012-1.05-.305-1.067-1.337v-4.762l6.033 6.722.49.021h.06l-.01-.063a8.23 8.23 0 0 1-.068-1.19V28.34c.012-1.408.515-1.446 1.008-1.46H68.744V26.421h-.05c-.49-.006-.977.036-1.461.036zm1.464.367h-.176c-.501 0-1.06.096-1.06 1.516v5.407c0 .419.009.832.07 1.201h-.453l-6.123-6.825v4.9c0 1.037.202 1.392 1.119 1.392h.2v.357c-.51 0-1.02-.047-1.53-.047-.534 0-1.081.047-1.617.047v-.357h.164c.82 0 1.074-.557 1.074-1.507v-5.01c0-.665-.55-1.07-1.083-1.07h-.153v-.354c.451 0 .912.049 1.368.049.355 0 .7-.05 1.06-.05l5.29 5.956.021-.024V27.95c0-.977-.676-1.123-1.031-1.123h-.264v-.355c.56 0 1.105.05 1.664.05.49 0 .976-.05 1.465-.05v.353h-.005zM20.17 40h9.41c10.933.051 20.912-8.917 20.912-19.827C50.493 8.24 40.513-.006 29.58 0h-9.409C9.11-.006 0 8.244 0 20.173 0 31.087 9.107 40.055 20.171 40zm.045-38.348c10.111.002 18.307 8.2 18.307 18.313 0 10.111-8.194 18.307-18.307 18.313-10.11-.006-18.304-8.202-18.306-18.313C1.912 9.85 10.106 1.654 20.216 1.652zm4.151 29.145V9.131c4.354 1.67 7.448 5.888 7.453 10.832-.007 4.948-3.099 9.158-7.453 10.834zM8.615 19.963A11.624 11.624 0 0 1 16.06 9.131v21.66a11.611 11.611 0 0 1-7.445-10.828z" fill="#346275" fill-rule="evenodd"/></svg>