<?xml version="1.0" encoding="UTF-8"?>
<svg xmlns="http://www.w3.org/2000/svg" id="Layer_2" data-name="Layer 2" viewBox="0 0 1200 305.08">
  <defs>
    <style>
      .cls-1 {
        fill: #346275;
      }
    </style>
  </defs>
  <g id="Layer_1-2" data-name="Layer 1">
    <g>
      <g>
        <path class="cls-1" d="m159.09,117.68v-3.34c0-38.41-16.7-56.79-43.01-56.79s-43.43,19.62-43.43,56.37v3.34c0,37.16,16.28,55.95,43.43,55.95s43.01-19.63,43.01-55.54M142.8,1.18c50.94,0,92.28,38.42,92.28,113.16v3.34c0,75.16-41.34,112.74-92.7,112.74-32.99,0-56.79-15.45-67.64-37.16v105.22H0V7.03h74.74v32.57C87.27,18.72,109.82,1.18,142.8,1.18"></path>
        <path class="cls-1" d="m413.47,116.08v-3.34c0-38-15.87-56.37-40.92-56.37-26.31,0-41.76,18.79-41.76,56.79v3.34c0,36.75,15.87,55.54,40.5,55.54s42.17-18.79,42.17-55.95m-158.67,1.25v-3.34C254.8,39.67,297.39,0,346.24,0c32.99,0,52.61,14.2,65.14,36.33V5.85h74.74v218.38h-74.74v-35.07c-11.27,22.13-34.24,40.09-65.55,40.09-48.44,0-91.03-36.33-91.03-111.9"></path>
        <polygon class="cls-1" points="635.61 123.53 677.36 7.03 748.76 7.03 631.85 298.48 560.45 298.48 596.77 203.28 509.5 7.03 590.51 7.03 635.61 123.53"></polygon>
        <polygon class="cls-1" points="752.62 225.41 752.62 173.63 852 63.4 764.73 63.4 764.31 7.03 939.27 7.03 939.27 62.15 844.07 168.62 946.37 168.62 946.37 225.41 752.62 225.41"></polygon>
      </g>
      <path class="cls-1" d="m981.6,196.11c.88-60.14,46.42-109.43,108.32-109.43s110.09,49.29,110.09,109.43-46.86,108.97-110.09,108.97-108.32-48.38-108.32-108.97"></path>
    </g>
  </g>
</svg>
