<?xml version="1.0" encoding="UTF-8"?>
<svg width="173px" height="40px" viewBox="0 0 173 40" version="1.1" xmlns="http://www.w3.org/2000/svg" xmlns:xlink="http://www.w3.org/1999/xlink">
    <!-- Generator: Sketch 56.3 (81716) - https://sketch.com -->
    <title>neosurf</title>
    <desc>Created with Sketch.</desc>
    <g id="neosurf" stroke="none" stroke-width="1" fill="none" fill-rule="evenodd">
        <g id="Group" fill="#346275">
            <path d="M0,39.3668802 L0,6.88103038 C0,3.92764346 2.31396047,1.81818182 5.41716953,1.81818182 C8.52002796,1.81818182 10.3607899,3.030841 11.7283533,5.72054522 L19.880299,21.9638217 L19.9854153,21.9638217 L19.9854153,2.45059842 L29.1368421,2.45059842 L29.1368421,34.6205916 C29.1368421,37.9955896 26.6122985,40 24.298338,40 C21.9316441,40 20.1959984,38.892392 17.7765711,34.1989805 L9.25654311,17.7448985 L9.15107622,17.7448985 L9.15107622,39.3668802 L0,39.3668802 Z" id="Fill-3"></path>
            <path d="M45.764709,29.2197277 L42.346394,23.7435401 L49.6867646,18.8380324 C48.3420778,17.9823692 47.2774027,17.8680619 46.2126576,17.8680619 C42.5147515,17.8680619 40.4976162,21.6900767 40.4976162,24.9984938 C40.4976162,28.4205046 42.9069781,32.0146184 46.5490921,32.0146184 C49.9109141,32.0146184 53.216944,28.9911846 54.5615607,25.7970034 L61.0052632,29.1625741 C58.4278943,35.4366292 52.7125025,40 45.932716,40 C38.4243384,40 31.8684211,33.4402481 31.8684211,25.4548665 C31.8684211,17.4687714 38.4243384,10.9090909 45.932716,10.9090909 C52.2083414,10.9090909 56.3546165,14.3318152 59.2684199,19.7508493 L45.764709,29.2197277 Z" id="Fill-4"></path>
            <path d="M69.6643512,25.4548665 C69.6643512,22.2600432 71.969812,19.5794597 75.1184562,19.5794597 C78.2670301,19.5794597 80.5725612,22.2600432 80.5725612,25.4548665 C80.5725612,28.6490477 78.2670301,31.3296312 75.1184562,31.3296312 C71.969812,31.3296312 69.6643512,28.6490477 69.6643512,25.4548665 L69.6643512,25.4548665 Z M61.0052632,25.4548665 C61.0052632,33.4402481 67.5838237,40 75.1184562,40 C82.6530888,40 89.2315789,33.4402481 89.2315789,25.4548665 C89.2315789,17.4687714 82.6530888,10.9090909 75.1184562,10.9090909 C67.5838237,10.9090909 61.0052632,17.4687714 61.0052632,25.4548665 Z" id="Fill-5"></path>
            <path d="M91.0526316,31.4591784 L99.5634048,31.4591784 C100.613192,31.4591784 101.110711,30.953981 101.110711,30.2246492 C101.110711,27.6429971 91.329077,28.5972355 91.329077,19.5622956 C91.329077,14.3997637 95.7505452,11.8181818 99.9502487,11.8181818 L108.571766,11.8181818 L108.571766,19.1133249 L101.662911,19.1133249 C100.613192,19.1133249 99.8395047,19.6747489 99.8395047,20.4040807 C99.8395047,22.5929184 110.173684,23.1536405 110.173684,30.5050102 C110.173684,36.0602863 106.747669,39.0909091 100.944664,39.0909091 L91.0526316,39.0909091 L91.0526316,31.4591784 Z" id="Fill-6"></path>
            <path d="M121.627389,27.5505616 C121.627389,29.9272024 122.81667,31.3982506 124.742105,31.3982506 C126.668178,31.3982506 127.856751,29.9272024 127.856751,27.5505616 L127.856751,11.8181818 L136.578947,11.8181818 L136.578947,27.5505616 C136.578947,34.6804841 132.445121,40 124.742105,40 C117.039727,40 112.905263,34.6804841 112.905263,27.5505616 L112.905263,11.8181818 L121.627389,11.8181818 L121.627389,27.5505616 Z" id="Fill-7"></path>
            <path d="M146.967206,16.3637651 L147.077598,16.3637651 C148.399203,12.4919889 150.933536,11.8181818 154.789474,11.8181818 L154.789474,20.0112664 C148.675114,20.2361729 148.124669,21.5824535 148.124669,26.2967166 L148.124669,39.0909091 L139.310526,39.0909091 L139.310526,11.8181818 L146.967206,11.8181818 L146.967206,16.3637651 Z" id="Fill-8"></path>
            <path d="M156.610526,39.0909091 L156.610526,9.82883848 C156.610526,4.18851876 160.996242,0 167.921256,0 L173,0 L173,8.15336112 L168.729212,8.15336112 C166.421066,8.15336112 165.844409,9.43792869 165.844409,11.7272937 L171.195238,11.7272937 L171.195238,19.8807247 L165.844409,19.8807247 L165.844409,39.0909091 L156.610526,39.0909091 Z" id="Fill-9"></path>
        </g>
    </g>
</svg>