<svg xmlns="http://www.w3.org/2000/svg" viewBox="0 0 133.53 40"><defs><style>.cls-1{fill:#346275;}</style></defs><g id="Layer_2" data-name="Layer 2"><g id="Layer_1-2" data-name="Layer 1"><path class="cls-1" d="M86.65,10.92a12.6,12.6,0,0,0-16.18,0A10.07,10.07,0,0,0,67.08,19a10.24,10.24,0,0,0,3.39,8.11,12.73,12.73,0,0,0,16.18,0A10.12,10.12,0,0,0,90.09,19,10,10,0,0,0,86.65,10.92ZM74.3,23.4A5.82,5.82,0,0,1,72.51,19a5.63,5.63,0,0,1,1.79-4.37,5.9,5.9,0,0,1,4.24-1.68,6,6,0,0,1,4.29,1.68A5.56,5.56,0,0,1,84.66,19a5.7,5.7,0,0,1-1.83,4.41A6.15,6.15,0,0,1,78.54,25,6,6,0,0,1,74.3,23.4Zm23.82,6V.58H92.77V29.41ZM115.4,8.57v11.5c0,2.77-1.52,4.61-4.4,4.61s-4.41-1.83-4.41-4.61V8.57h-5.36V21c0,4.8,3.06,9,9.77,9h0c6.67,0,9.72-4.33,9.72-9V8.57Zm-54,0L56,22.68,50.68,8.57H45l8.54,20.84h5L67.07,8.57ZM45,18.4a10.33,10.33,0,0,0-2.88-7.48A9.85,9.85,0,0,0,34.74,8a11,11,0,0,0-7.9,3.11A10.46,10.46,0,0,0,23.65,19,10.63,10.63,0,0,0,34.48,30a10.19,10.19,0,0,0,9.9-6.1l-4-2.26c-1.32,2.56-3.23,3.82-5.82,3.82a5.52,5.52,0,0,1-5.78-5.21H45V18.4ZM34.57,12a5.19,5.19,0,0,1,5.52,4.36H28.79A6.13,6.13,0,0,1,34.57,12ZM23.65,29.41,16.47,17c4.55-1.64,6.8-4.49,6.8-8.65C23.27,3.24,19.19,0,12.7,0H0V29.41H5.61V17.48h4.75l6.88,11.93ZM12.7,4.87c3.31,0,5,1.3,5,3.87S16,12.6,12.7,12.6H5.61V4.87ZM129.83,30a6.21,6.21,0,0,1-6.24-6.17V2.94h5.35V8.58h4.59v4.28h-4.59V23.48a1.82,1.82,0,0,0,1.84,1.81h2.75V30Z"/><path class="cls-1" d="M76.3,32a14.77,14.77,0,0,0-1.74.86c0,.08,2.84,6.09,3,6.26a2.23,2.23,0,0,0,.79.69,1.37,1.37,0,0,0,.74.14c.42,0,.51,0,.74-.14a3.18,3.18,0,0,0,.81-.74q.06-.12.09,0a2.5,2.5,0,0,0,.8.74,1.2,1.2,0,0,0,.77.15c.44,0,.51,0,.74-.14a2.09,2.09,0,0,0,.88-.86c.08-.18.77-1.6,1.52-3.24l1.34-2.92-.35-.17c-.19-.09-1-.47-1.78-.81s-1.46-.63-1.46-.62-.59,1.23-1.24,2.69-1.24,2.63-1.25,2.63-.59-1.19-1.3-2.69-1.28-2.68-1.31-2.68L76.27,32h0l0,0Zm2.51,3c.63,1.32,1.19,2.52,1.23,2.62l.08.19-.13.29c-.29.62-.52.84-.95.84a.8.8,0,0,1-.66-.37c-.07-.09-.4-.81-.77-1.58s-.87-1.89-1.16-2.51a11.17,11.17,0,0,1-.51-1.14,10.65,10.65,0,0,1,1.67-.79s.55,1.09,1.17,2.46h0Zm5.8-2a4.63,4.63,0,0,1,.8.44s-.52,1.19-1.16,2.57c-1.34,2.92-1.38,3-1.86,3-.27,0-.33,0-.48-.14a1.14,1.14,0,0,1-.37-.52,2.09,2.09,0,0,1-.2-.46s.52-1.2,1.17-2.58,1.19-2.58,1.2-2.59a.12.12,0,0,1,.09-.11l.87.4h0Z"/><path class="cls-1" d="M94.38,32.34a.68.68,0,0,0,0,1.2.66.66,0,0,0,.77-.15.57.57,0,0,0,.19-.59.7.7,0,0,0-1-.46Z"/><path class="cls-1" d="M120.47,35.54v3.24h1.09V32.32h-1.09v3.24h0Z"/><path class="cls-1" d="M122.8,35.54v3.24h1.1V32.32h-1.1v3.24h0Z"/><path class="cls-1" d="M130.46,33.79v.66h-.81v1h.81v1.09c0,1,0,1.13.15,1.39a1.44,1.44,0,0,0,1.39.92,2.41,2.41,0,0,0,.65-.05,3,3,0,0,0,.88-.39,2.65,2.65,0,0,0-.18-.47c-.13-.29-.19-.37-.26-.37a2.13,2.13,0,0,0-.37.15.83.83,0,0,1-1.09-.22,4.72,4.72,0,0,1-.09-1.09v-1h1.69v-1h-1.71v-1.3h-1.09v.66h0l0,0Z"/><path class="cls-1" d="M102.43,34.38a2.28,2.28,0,0,0-1.31,1,2.69,2.69,0,0,0,.11,2.57,1.91,1.91,0,0,0,1.64.91,1.39,1.39,0,0,0,1.16-.37c.11-.11.19-.18.22-.18s0,.11,0,.22v.22h1.1V36.6l0-2.15h-.52l-.52,0v.24s0,.22,0,.22-.11-.07-.19-.15a1.44,1.44,0,0,0-1-.37,3,3,0,0,0-.62.07h0v0Zm1.09,1.06a1.21,1.21,0,0,1,.69.68,1.59,1.59,0,0,1,0,1,1.15,1.15,0,0,1-1.6.66A1.19,1.19,0,0,1,102,36.6a1,1,0,0,1,.11-.59,1.2,1.2,0,0,1,1.45-.55h0l0,0Z"/><path class="cls-1" d="M110.34,34.41l-.25.18a31.82,31.82,0,0,0-1.12,3,.11.11,0,0,1-.09.11s-.3-.74-.59-1.63-.57-1.6-.57-1.6a3.58,3.58,0,0,0-.52.17c-.33.11-.51.22-.48.26.07.29,1.38,3.5,1.49,3.62a.94.94,0,0,0,1.17.26c.29-.17.41-.41.86-1.53a4.56,4.56,0,0,1,.44-1,11.28,11.28,0,0,1,.41,1.06c.4,1.08.59,1.34.88,1.49a1,1,0,0,0,.74,0c.37-.15.46-.37,1.19-2.18.37-1,.69-1.75.69-1.78a3,3,0,0,0-.51-.22c-.37-.14-.52-.18-.52-.11-.29.77-1.08,3-1.1,3.07s-.07.14-.59-1.36c-.3-.83-.59-1.6-.63-1.67a.57.57,0,0,0-.81-.19h0l0,0Z"/><path class="cls-1" d="M116.38,34.38a2.16,2.16,0,0,0-.94.59,2.32,2.32,0,0,0-.58,1.16,2.39,2.39,0,0,0,1.19,2.58,1.47,1.47,0,0,0,.74.18,2,2,0,0,0,.73-.08,1.7,1.7,0,0,0,.47-.29,1.07,1.07,0,0,1,.19-.18v.4h.52l.52,0V36.6l0-2.18h-1.1v.4a1.3,1.3,0,0,1-.19-.15c-.08-.08-.29-.19-.37-.26a2,2,0,0,0-1.19-.09h0l0,.07Zm1.1,1.06a1.33,1.33,0,0,1,.51,2,1.12,1.12,0,0,1-.91.4,1.28,1.28,0,0,1-.88-.36A1.55,1.55,0,0,1,116,36a1.19,1.19,0,0,1,1.45-.55h0Z"/><path class="cls-1" d="M126.46,34.38A2.08,2.08,0,0,0,124.9,36a2.52,2.52,0,0,0,0,1.28,2,2,0,0,0,1.67,1.57,3.34,3.34,0,0,0,1.47-.08,2.5,2.5,0,0,0,.86-.48.81.81,0,0,0-.33-.37l-.33-.33-.25.15a1.42,1.42,0,0,1-.87.26,1.17,1.17,0,0,1-1-.5c-.3-.44-.37-.4,1.39-.4,1.38,0,1.56,0,1.57-.08a2.29,2.29,0,0,0,0-.88,2,2,0,0,0-1.16-1.53,1.49,1.49,0,0,0-.77-.18,3,3,0,0,0-.66,0v0Zm1.08,1a1.08,1.08,0,0,1,.47.66l0,.13H126l0-.19a1.06,1.06,0,0,1,1.52-.59Z"/><path class="cls-1" d="M94.19,36.6v2.18h1.1V36.6l-.05-2.15h-.52l-.52,0V36.6h0Z"/><path class="cls-1" d="M89.42,34.6c-.25.08-.44.18-.48.18s0,.28.61,1.79a19.2,19.2,0,0,0,.81,1.91.94.94,0,0,0,1.17.26.88.88,0,0,0,.4-.47c.11-.19,1.35-3.34,1.35-3.42a4.43,4.43,0,0,0-1-.37s-1.1,3-1.2,3.24c0,.05-.29-.65-1-2.79a2.21,2.21,0,0,0-.21-.48s-.2.11-.42.18h0l0,0Z"/><path class="cls-1" d="M96.6,34.65a2.67,2.67,0,0,0-.51.22s1.24,3.24,1.35,3.4a1.56,1.56,0,0,0,.5.52.91.91,0,0,0,1.1-.35c.07-.11.44-1,.81-1.89l.66-1.75-.14,0c-.41-.17-.9-.33-.9-.33s-.26.66-.52,1.5c-.69,1.93-.64,1.79-.69,1.71s-.29-.77-.59-1.6-.55-1.54-.58-1.56-.24,0-.5.13v0Z"/><path class="cls-1" d="M65,34.87a1.79,1.79,0,0,1,.44.52,1.51,1.51,0,0,1,.18.69,1.49,1.49,0,0,1-.25.84,1.5,1.5,0,0,1-.69.59,2.39,2.39,0,0,1-1.08.21H61.3V31.61h2.19a2.56,2.56,0,0,1,1.09.22,1.66,1.66,0,0,1,.66.55,1.51,1.51,0,0,1-.09,1.7,1.58,1.58,0,0,1-.76.51,1.24,1.24,0,0,1,.59.28h0Zm-2.85-.59h1.34a1.34,1.34,0,0,0,.88-.26.85.85,0,0,0,.3-.72,1,1,0,0,0-.3-.73,1.29,1.29,0,0,0-.88-.26H62.17v2Zm2.34,2.53a1,1,0,0,0,.36-.8,1,1,0,0,0-.36-.81,1.47,1.47,0,0,0-.94-.3H62.15v2.15h1.41a1.39,1.39,0,0,0,1-.29h0Z"/><path class="cls-1" d="M70.83,32.94,68,40h-.84l1-2.31-1.93-4.74H67l1.53,3.89L70,32.94Z"/><path class="cls-1" d="M71.49,33.87a1,1,0,0,1-.15-.37.56.56,0,0,1,.15-.37.59.59,0,0,1,.37-.15.49.49,0,0,1,.37.15.52.52,0,0,1,.15.37.46.46,0,0,1-.15.37.7.7,0,0,1-.37.15A.46.46,0,0,1,71.49,33.87Zm0,3.76a1.14,1.14,0,0,1-.15-.37.54.54,0,0,1,.15-.37.51.51,0,0,1,.37-.15.49.49,0,0,1,.37.15.51.51,0,0,1,.15.37.48.48,0,0,1-.15.37.7.7,0,0,1-.37.15A.59.59,0,0,1,71.49,37.63Z"/></g></g></svg>