<svg width="24" height="24" viewBox="0 0 24 24" fill="none" xmlns="http://www.w3.org/2000/svg">
<path d="M24 13.3H0V16H24V13.3Z" fill="white"/>
<path d="M24 16H0V18.7H24V16Z" fill="#115EAD"/>
<path d="M24 18.6H0V21.3H24V18.6Z" fill="white"/>
<path d="M24 21.3H0V24H24V21.3Z" fill="#115EAD"/>
<path d="M24 0H0V2.7H24V0Z" fill="#115EAD"/>
<path d="M24 10.7H0V13.4H24V10.7Z" fill="#115EAD"/>
<path d="M24 2.69995H0V5.39995H24V2.69995Z" fill="white"/>
<path d="M24 5.40002H0V8.10002H24V5.40002Z" fill="#115EAD"/>
<path d="M24 8H0V10.7H24V8Z" fill="white"/>
<path d="M13.3 0H0V13.3H13.3V0Z" fill="#115EAD"/>
<path d="M13.3 5.40002H0V8.10002H13.3V5.40002Z" fill="white"/>
<path d="M7.99999 0H5.29999V13.3H7.99999V0Z" fill="white"/>
</svg>
